<svg viewBox="-0.5 -0.5 16 16" fill="none" xmlns="http://www.w3.org/2000/svg" id="At-Sign--Streamline-Iconoir" height="16" width="16">
  <desc>
    At Sign Streamline Icon: https://streamlinehq.com
  </desc>
  <path d="M11.646125000000001 12.87075c-1.1465 0.8863749999999999 -2.58475 1.413875 -4.146125 1.413875 -3.7470625 0 -6.784625 -3.0375625 -6.784625 -6.784625C0.7153750000000001 3.7529375 3.7529375 0.7153750000000001 7.5 0.7153750000000001c3.7470625 0 6.784625 3.0375625 6.784625 6.784625 0 4.1461875 -4.5230625 4.1461875 -4.5230625 1.5076875V4.484624999999999" stroke="#000000" stroke-linecap="round" stroke-linejoin="round" stroke-width="1"></path>
  <path d="M9.7615625 7.5v-1.13075c0 -1.040875 -1.0125000000000002 -1.884625 -2.2615625 -1.884625s-2.2615625 0.84375 -2.2615625 1.884625V7.5" stroke="#000000" stroke-linecap="round" stroke-linejoin="round" stroke-width="1"></path>
  <path d="M9.7615625 7.5v1.13075c0 1.040875 -1.0125000000000002 1.884625 -2.2615625 1.884625s-2.2615625 -0.84375 -2.2615625 -1.884625V7.5" stroke="#000000" stroke-linecap="round" stroke-linejoin="round" stroke-width="1"></path>
</svg>