<svg viewBox="-0.5 -0.5 16 16" fill="none" xmlns="http://www.w3.org/2000/svg" id="Building--Streamline-Iconoir" height="16" width="16">
  <desc>
    Building Streamline Icon: https://streamlinehq.com
  </desc>
  <path d="m5.9923125 5.2459999999999996 0.0075625 -0.008375" stroke="#000000" stroke-linecap="round" stroke-linejoin="round" stroke-width="1"></path>
  <path d="m9.0076875 5.2459999999999996 0.0075625 -0.008375" stroke="#000000" stroke-linecap="round" stroke-linejoin="round" stroke-width="1"></path>
  <path d="m5.9923125 8.261375 0.0075625 -0.008375" stroke="#000000" stroke-linecap="round" stroke-linejoin="round" stroke-width="1"></path>
  <path d="m9.0076875 8.261375 0.0075625 -0.008375" stroke="#000000" stroke-linecap="round" stroke-linejoin="round" stroke-width="1"></path>
  <path d="m5.9923125 11.27675 0.0075625 -0.008375" stroke="#000000" stroke-linecap="round" stroke-linejoin="round" stroke-width="1"></path>
  <path d="m9.0076875 11.27675 0.0075625 -0.008375" stroke="#000000" stroke-linecap="round" stroke-linejoin="round" stroke-width="1"></path>
  <path d="M2.9769375 13.832312499999999V2.675375c0 -0.2498125 0.2025 -0.4523125 0.4523125 -0.4523125H7.5V1.1676875c0 -0.2498125 0.2025 -0.4523125 0.4523125 -0.4523125h3.6184375c0.24987499999999999 0 0.4523125 0.2025 0.4523125 0.4523125v12.664625000000001c0 0.2498125 -0.20243750000000002 0.4523125 -0.4523125 0.4523125H3.4292499999999997c-0.2498125 0 -0.4523125 -0.2025 -0.4523125 -0.4523125Z" stroke="#000000" stroke-linecap="round" stroke-linejoin="round" stroke-width="1"></path>
</svg>