<svg viewBox="-0.5 -0.5 16 16" fill="none" xmlns="http://www.w3.org/2000/svg" id="Github-Circle--Streamline-Iconoir" height="16" width="16">
  <desc>
    Github Circle Streamline Icon: https://streamlinehq.com
  </desc>
  <path d="M7.5 14.337187499999999c3.7760624999999997 0 6.837187500000001 -3.061125 6.837187500000001 -6.837187500000001 0 -3.7760624999999997 -3.061125 -6.837187500000001 -6.837187500000001 -6.837187500000001C3.7239375000000003 0.6628125 0.6628125 3.7239375000000003 0.6628125 7.5c0 3.7760624999999997 3.061125 6.837187500000001 6.837187500000001 6.837187500000001Z" stroke="#000000" stroke-linecap="round" stroke-linejoin="round" stroke-width="1"></path>
  <path d="M9.0953125 12.2860625v-1.2738125c0.017125 -0.21156250000000001 -0.01225 -0.42437500000000006 -0.08612500000000001 -0.6240625000000001 -0.073875 -0.19974999999999998 -0.1905625 -0.38187499999999996 -0.34231249999999996 -0.53425 1.43125 -0.15537499999999999 2.9354375 -0.6835625 2.9354375 -3.1068125 -0.000125 -0.619625 -0.24487499999999998 -1.2155625 -0.6836875 -1.664375 0.20775 -0.542125 0.1930625 -1.1413125 -0.041062499999999995 -1.6731874999999998 0 0 -0.537875 -0.1553125 -1.78225 0.656875 -1.0446875 -0.2756875 -2.1459375 -0.2756875 -3.1906875 0 -1.244375 -0.8121875000000001 -1.78225 -0.656875 -1.78225 -0.656875 -0.2340625 0.531875 -0.24875000000000003 1.131125 -0.041 1.6731874999999998 -0.4420625 0.452125 -0.687125 1.0534375 -0.6836875 1.6776875 0 2.4055 1.5041875 2.9336875 2.935375 3.10675 -0.1499375 0.150875 -0.2655625 0.3308125 -0.33937500000000004 0.5281875 -0.073875 0.19724999999999998 -0.10418749999999999 0.4074375 -0.08906249999999999 0.616875v1.2738125" stroke="#000000" stroke-linecap="round" stroke-linejoin="round" stroke-width="1"></path>
  <path d="M5.904625 11.3984375c-1.3674374999999999 0.43193750000000003 -2.5069375 0 -3.1906875 -1.3315" stroke="#000000" stroke-linecap="round" stroke-linejoin="round" stroke-width="1"></path>
</svg>